<?xml version="1.0" ?><!DOCTYPE svg  PUBLIC '-//W3C//DTD SVG 1.1//EN'  'http://www.w3.org/Graphics/SVG/1.1/DTD/svg11.dtd'><svg enable-background="new 0 0 128 128" height="128px" version="1.1" viewBox="0 0 128 128" width="128px" xml:space="preserve" xmlns="http://www.w3.org/2000/svg" xmlns:xlink="http://www.w3.org/1999/xlink"><g id="OBJECT"><path d="M127.988,41.28c-0.368-0.57-1.001-0.915-1.68-0.915H97.351V29.669c0-1.104-0.896-2-2-2H43.408l-5.798-11.59   c-0.339-0.678-1.031-1.105-1.789-1.105H1.692c-1.104,0-2,0.896-2,2v94.055c0,0.03,0.007,0.058,0.009,0.087   c0.002,0.052,0.009,0.104,0.016,0.156c0.013,0.105,0.033,0.208,0.062,0.307c0.013,0.046,0.026,0.092,0.042,0.137   c0.044,0.12,0.099,0.233,0.164,0.341c0.011,0.019,0.016,0.039,0.027,0.057c0.003,0.004,0.007,0.007,0.01,0.012   c0.083,0.127,0.181,0.242,0.291,0.346c0.03,0.028,0.063,0.051,0.095,0.078c0.084,0.071,0.173,0.136,0.269,0.193   c0.042,0.025,0.084,0.047,0.128,0.069c0.097,0.049,0.199,0.087,0.305,0.12c0.042,0.013,0.082,0.028,0.124,0.039   c0.148,0.035,0.3,0.058,0.458,0.058h93.659c0.787,0,1.5-0.461,1.823-1.178l30.958-68.663   C128.41,42.569,128.356,41.851,127.988,41.28z M34.585,18.974l5.798,11.59c0.339,0.678,1.031,1.105,1.789,1.105h51.179v8.697   H32.649c-0.787,0-1.5,0.461-1.823,1.178L3.692,101.727V18.974H34.585z M94.059,109.029H4.788l29.153-64.663h89.271L94.059,109.029z   "/></g></svg>